<svg xmlns="http://www.w3.org/2000/svg" width="1024" height="1536" viewBox="0 0 1024 1536">
<!-- Source silhouette draft: main opaque alpha component. Editable independently; renderer never retraces. -->
<path fill="white" fill-rule="evenodd" d="M 392 200 L 399 201 L 399 202 L 404 202 L 404 203 L 409 203 L 409 204 L 415 204 L 415 205 L 427 206 L 427 207 L 433 207 L 433 208 L 439 208 L 439 209 L 457 210 L 457 211 L 467 211 L 467 212 L 481 212 L 481 213 L 538 213 L 538 212 L 553 212 L 553 211 L 572 210 L 572 209 L 578 209 L 578 208 L 591 207 L 591 206 L 595 206 L 595 205 L 597 206 L 597 205 L 601 205 L 601 204 L 606 204 L 606 203 L 610 203 L 610 202 L 619 201 L 619 200 L 622 201 L 622 207 L 623 207 L 624 231 L 625 231 L 625 299 L 624 299 L 624 315 L 623 315 L 622 341 L 621 341 L 621 351 L 620 351 L 620 361 L 619 361 L 618 376 L 617 376 L 615 402 L 614 402 L 614 411 L 613 411 L 613 423 L 612 423 L 611 447 L 610 447 L 610 463 L 609 463 L 610 490 L 611 490 L 612 507 L 613 507 L 613 514 L 614 514 L 616 535 L 617 535 L 617 563 L 616 563 L 616 574 L 615 574 L 615 582 L 614 582 L 613 594 L 612 594 L 611 604 L 610 604 L 610 610 L 609 610 L 609 616 L 608 616 L 608 652 L 609 652 L 609 658 L 610 658 L 610 665 L 611 665 L 612 677 L 613 677 L 613 682 L 614 682 L 615 692 L 616 692 L 616 698 L 617 698 L 617 704 L 618 704 L 618 711 L 619 711 L 620 723 L 621 723 L 621 733 L 622 733 L 622 772 L 621 772 L 620 792 L 619 792 L 619 799 L 618 799 L 618 806 L 617 806 L 617 812 L 616 812 L 615 824 L 614 824 L 614 830 L 613 830 L 613 836 L 612 836 L 612 840 L 611 840 L 610 851 L 609 851 L 609 856 L 608 856 L 607 866 L 606 866 L 606 871 L 605 871 L 605 876 L 604 876 L 604 881 L 603 881 L 602 891 L 601 891 L 601 896 L 600 896 L 600 901 L 599 901 L 599 908 L 598 908 L 597 920 L 596 920 L 596 926 L 595 926 L 595 933 L 594 933 L 594 940 L 593 940 L 593 946 L 592 946 L 591 974 L 590 974 L 590 1003 L 591 1003 L 591 1015 L 592 1015 L 592 1021 L 593 1021 L 593 1025 L 594 1025 L 594 1030 L 595 1030 L 596 1037 L 597 1037 L 597 1040 L 598 1040 L 599 1046 L 600 1046 L 600 1049 L 601 1049 L 602 1055 L 603 1055 L 603 1058 L 604 1058 L 604 1063 L 605 1063 L 605 1084 L 604 1084 L 603 1096 L 604 1096 L 604 1101 L 605 1101 L 605 1105 L 606 1105 L 606 1108 L 607 1108 L 608 1116 L 609 1116 L 610 1122 L 611 1122 L 611 1126 L 612 1126 L 613 1132 L 614 1132 L 614 1136 L 615 1136 L 615 1139 L 616 1139 L 618 1151 L 619 1151 L 620 1157 L 621 1157 L 621 1161 L 622 1161 L 622 1164 L 623 1164 L 623 1168 L 624 1168 L 626 1180 L 627 1180 L 628 1186 L 629 1186 L 629 1190 L 630 1190 L 630 1194 L 631 1194 L 631 1199 L 632 1199 L 633 1207 L 634 1207 L 634 1213 L 635 1213 L 635 1217 L 636 1217 L 637 1241 L 636 1241 L 635 1260 L 634 1260 L 633 1266 L 632 1266 L 631 1272 L 630 1272 L 629 1276 L 627 1277 L 627 1279 L 625 1280 L 625 1282 L 621 1285 L 621 1287 L 618 1288 L 615 1292 L 613 1292 L 612 1294 L 610 1294 L 610 1295 L 607 1296 L 607 1297 L 605 1297 L 605 1298 L 602 1299 L 602 1300 L 599 1300 L 599 1301 L 597 1301 L 597 1302 L 595 1302 L 595 1303 L 589 1304 L 589 1305 L 583 1306 L 583 1307 L 579 1307 L 579 1308 L 575 1308 L 575 1309 L 572 1309 L 572 1310 L 567 1310 L 567 1311 L 560 1311 L 560 1312 L 553 1312 L 553 1313 L 511 1313 L 511 1312 L 502 1312 L 502 1311 L 492 1310 L 492 1309 L 484 1308 L 484 1307 L 478 1306 L 478 1305 L 472 1304 L 472 1303 L 470 1303 L 470 1302 L 467 1302 L 467 1301 L 465 1301 L 464 1299 L 462 1299 L 462 1298 L 458 1297 L 457 1295 L 455 1295 L 455 1294 L 454 1294 L 449 1288 L 447 1288 L 447 1286 L 443 1283 L 443 1281 L 441 1280 L 441 1278 L 440 1278 L 438 1272 L 437 1272 L 437 1268 L 436 1268 L 436 1266 L 435 1266 L 434 1257 L 433 1257 L 432 1229 L 433 1229 L 434 1217 L 435 1217 L 436 1211 L 437 1211 L 438 1203 L 439 1203 L 440 1197 L 441 1197 L 442 1191 L 443 1191 L 443 1189 L 444 1189 L 444 1186 L 445 1186 L 446 1180 L 447 1180 L 448 1174 L 449 1174 L 450 1169 L 451 1169 L 451 1167 L 452 1167 L 452 1165 L 453 1165 L 455 1156 L 456 1156 L 456 1154 L 457 1154 L 457 1151 L 458 1151 L 458 1149 L 459 1149 L 460 1144 L 461 1144 L 462 1138 L 463 1138 L 463 1136 L 464 1136 L 464 1133 L 465 1133 L 466 1127 L 467 1127 L 468 1121 L 469 1121 L 469 1119 L 470 1119 L 471 1113 L 472 1113 L 473 1107 L 474 1107 L 475 1099 L 476 1099 L 476 1098 L 475 1098 L 474 1086 L 473 1086 L 473 1079 L 472 1079 L 472 1069 L 473 1069 L 473 1063 L 474 1063 L 475 1055 L 476 1055 L 476 1050 L 477 1050 L 479 1028 L 478 1028 L 478 1010 L 477 1010 L 477 1004 L 476 1004 L 476 996 L 475 996 L 474 986 L 473 986 L 473 980 L 472 980 L 472 976 L 471 976 L 471 972 L 470 972 L 468 960 L 467 960 L 467 957 L 466 957 L 465 950 L 464 950 L 464 946 L 463 946 L 463 942 L 462 942 L 461 936 L 460 936 L 460 932 L 459 932 L 459 930 L 458 930 L 458 927 L 457 927 L 456 921 L 455 921 L 455 918 L 454 918 L 453 912 L 452 912 L 451 906 L 450 906 L 450 903 L 449 903 L 448 897 L 447 897 L 447 894 L 446 894 L 446 891 L 445 891 L 445 888 L 444 888 L 443 883 L 442 883 L 442 880 L 441 880 L 441 878 L 440 878 L 439 871 L 438 871 L 437 865 L 436 865 L 436 862 L 435 862 L 434 856 L 433 856 L 433 852 L 432 852 L 432 849 L 431 849 L 431 845 L 430 845 L 430 841 L 429 841 L 429 838 L 428 838 L 428 834 L 427 834 L 427 831 L 426 831 L 425 823 L 424 823 L 424 820 L 423 820 L 423 814 L 422 814 L 421 806 L 420 806 L 419 796 L 418 796 L 418 788 L 417 788 L 417 781 L 416 781 L 416 767 L 415 767 L 415 727 L 416 727 L 416 714 L 417 714 L 418 698 L 419 698 L 419 693 L 420 693 L 420 688 L 421 688 L 421 683 L 422 683 L 422 679 L 423 679 L 425 667 L 426 667 L 426 664 L 427 664 L 428 657 L 429 657 L 429 655 L 430 655 L 430 651 L 431 651 L 431 648 L 432 648 L 432 644 L 433 644 L 434 639 L 435 639 L 435 636 L 436 636 L 437 630 L 438 630 L 438 627 L 439 627 L 440 622 L 441 622 L 441 619 L 442 619 L 442 616 L 443 616 L 443 614 L 444 614 L 445 609 L 446 609 L 447 603 L 448 603 L 448 600 L 449 600 L 449 596 L 450 596 L 451 590 L 452 590 L 452 586 L 453 586 L 453 583 L 454 583 L 455 573 L 456 573 L 456 567 L 457 567 L 457 557 L 458 557 L 458 520 L 457 520 L 457 511 L 456 511 L 456 505 L 455 505 L 454 494 L 453 494 L 453 488 L 452 488 L 452 483 L 451 483 L 451 479 L 450 479 L 450 475 L 449 475 L 447 463 L 446 463 L 446 459 L 445 459 L 444 453 L 443 453 L 443 450 L 442 450 L 442 446 L 441 446 L 441 443 L 440 443 L 440 439 L 439 439 L 438 433 L 437 433 L 436 427 L 435 427 L 435 423 L 434 423 L 433 416 L 432 416 L 431 410 L 430 410 L 430 406 L 429 406 L 428 400 L 427 400 L 427 398 L 426 398 L 425 390 L 424 390 L 423 384 L 422 384 L 422 380 L 421 380 L 421 377 L 420 377 L 420 373 L 419 373 L 418 367 L 417 367 L 417 363 L 416 363 L 416 359 L 415 359 L 413 347 L 412 347 L 412 344 L 411 344 L 411 340 L 410 340 L 410 336 L 409 336 L 409 332 L 408 332 L 408 328 L 407 328 L 405 316 L 404 316 L 404 312 L 403 312 L 402 302 L 401 302 L 401 296 L 400 296 L 400 290 L 399 290 L 399 284 L 398 284 L 398 278 L 397 278 L 396 268 L 395 268 L 394 254 L 393 254 L 392 228 L 391 228 L 391 202 L 392 202 L 392 200 Z"/>
</svg>
